#!OML:ASF E:\inclinewalkrobotboard\Project 1\Capture day 1\Session 1\subject1.ASF
:FULLY-SPECIFIED
:DEGREES
239
root 7.85721 21.1153 8.4683 -166.522 3.19419 180.3
lowerback 2.56413 3.57766 -7.57493
upperback 4.22624 5.05708 -1.23818
thorax 2.4308 2.46146 2.90341
lowerneck -8.65599 -0.295315 -2.98371
upperneck 27.1354 -3.93388 6.99342
head 10.2382 -2.0756 2.4209
rclavicle -4.19436e-014 3.4191e-014
rhumerus -22.6939 -9.403 -88.5654
rradius 33.3004
rwrist 7.73589
rhand -10.9056 -37.3607
rfingers 7.12502
rthumb 15.1114 -66.7891
lclavicle -4.19436e-014 3.4191e-014
lhumerus -27.8946 14.5022 77.4858
lradius 16.8293
lwrist -29.2738
lhand -24.3605 -22.7888
lfingers 7.12502
lthumb 2.12915 7.18032
rfemur -1.96759 3.76873 22.4962
rtibia 25.8723
rfoot -2.17362 1.42147
rtoes -22.2257
lfemur -50.9186 -3.71215 -17.457
ltibia 39.0467
lfoot -17.195 0.870354
ltoes -39.1127
240
root 7.82683 21.2367 8.19552 -166.256 2.79807 180.232
lowerback 2.45744 3.36993 -7.97577
upperback 4.22958 4.78872 -1.20159
thorax 2.4921 2.31377 3.17543
lowerneck -8.35082 -0.350255 -3.49028
upperneck 26.6301 -3.96288 7.46964
head 10.0116 -2.08705 2.67283
rclavicle 6.75868e-015 -3.57812e-015
rhumerus -23.5351 -10.2329 -87.5474
rradius 31.8775
rwrist 8.94919
rhand -11.6053 -37.4047
rfingers 7.12502
rthumb 14.4374 -66.8825
lclavicle 6.75868e-015 -3.57812e-015
lhumerus -27.4998 13.2007 78.4007
lradius 17.6314
lwrist -27.1026
lhand -24.4623 -22.7776
lfingers 7.12502
lthumb 2.03084 7.19252
rfemur -3.91153 2.63923 22.1018
rtibia 29.692
rfoot 1.7622 0.903894
rtoes -20.2113
lfemur -49.4897 -3.97275 -17.8599
ltibia 38.1156
lfoot -17.8348 0.477652
ltoes -39.8006
241
root 7.79359 21.3536 7.92878 -166.074 2.41369 180.163
lowerback 2.39737 3.17998 -8.29103
upperback 4.25998 4.54519 -1.16551
thorax 2.56265 2.18083 3.39704
lowerneck -8.38923 -0.351597 -3.72244
upperneck 26.3628 -3.92152 7.7243
head 9.92734 -2.05226 2.80628
rclavicle 1.39149e-015 3.97569e-015
rhumerus -24.458 -10.9223 -86.5359
rradius 30.7268
rwrist 9.71439
rhand -11.5253 -38.1082
rfingers 7.12502
rthumb 14.5144 -67.5805
lclavicle 1.39149e-015 3.97569e-015
lhumerus -26.9632 12.1894 79.1876
lradius 18.1789
lwrist -25.3395
lhand -24.6694 -22.9262
lfingers 7.12502
lthumb 1.83088 7.04568
rfemur -6.03436 1.54046 21.753
rtibia 33.7624
rfoot 5.75907 -0.0349134
rtoes -17.6035
lfemur -47.9566 -4.35851 -18.223
ltibia 37.1594
lfoot -18.5604 0.103589
ltoes -40.4699
242
root 7.75672 21.4616 7.66894 -165.951 2.14287 180.196
lowerback 2.39298 3.51634 -8.03222
upperback 4.047 4.99085 -1.54259
thorax 2.34117 2.42995 2.8473
lowerneck -7.475 -0.709288 -2.99303
upperneck 25.7566 -4.66454 8.13567
head 9.58411 -2.32128 2.73941
rclavicle 7.196e-014 -6.48038e-014
rhumerus -26.2745 -13.4139 -85.4785
rradius 29.9889
rwrist 10.2659
rhand -11.0785 -38.8401
rfingers 7.12502
rthumb 14.9448 -68.2809
lclavicle 7.196e-014 -6.48038e-014
lhumerus -26.4714 9.03951 79.9382
lradius 18.7286
lwrist -23.281
lhand -24.725 -22.7473
lfingers 7.12502
lthumb 1.77714 7.225
rfemur -8.48894 0.754536 21.5662
rtibia 38.1364
rfoot 9.55167 -1.4812
rtoes -14.4683
lfemur -46.4804 -4.71253 -18.4425
ltibia 36.392
lfoot -19.4426 -0.301442
ltoes -41.2317
243
root 7.7202 21.5616 7.41781 -165.938 2.08185 180.202
lowerback 2.35218 2.96281 -8.55594
upperback 4.23703 4.25464 -1.11786
thorax 2.5795 2.02662 3.60055
lowerneck -7.76331 -0.349947 -4.12105
upperneck 25.598 -3.88368 8.24779
head 9.54359 -2.02822 3.05765
rclavicle 2.44505e-014 9.93923e-015
rhumerus -26.5272 -12.4044 -84.5119
rradius 28.7027
rwrist 10.6748
rhand -11.8839 -38.2885
rfingers 7.12502
rthumb 14.1689 -67.7853
lclavicle 2.44505e-014 9.93923e-015
lhumerus -26.1003 10.1209 80.5924
lradius 19.2855
lwrist -22.3635
lhand -24.9781 -22.7314
lfingers 7.12502
lthumb 1.53277 7.24285
rfemur -11.1741 0.324371 21.4047
rtibia 42.7079
rfoot 12.9341 -3.3528
rtoes -11.5298
lfemur -44.8889 -4.90832 -18.6719
ltibia 35.5239
lfoot -20.237 -0.610316
ltoes -42.0042
244
root 7.68306 21.6527 7.17401 -166.056 2.21016 179.978
lowerback 2.4363 2.94546 -8.88179
upperback 4.20813 4.23005 -1.22852
thorax 2.49557 2.01479 3.66
lowerneck -7.56103 -0.34714 -3.85466
upperneck 25.4698 -3.90094 8.15067
head 9.45547 -2.02959 2.97351
rclavicle -1.41137e-014 -3.57812e-015
rhumerus -27.6341 -13.4608 -83.4482
rradius 27.8607
rwrist 11.3958
rhand -13.3932 -36.9274
rfingers 7.12502
rthumb 12.7141 -66.5204
lclavicle -1.41137e-014 -3.57812e-015
lhumerus -25.9234 8.65495 81.187
lradius 20.0687
lwrist -21.1857
lhand -24.9824 -22.1434
lfingers 7.12502
lthumb 1.52858 7.83092
rfemur -13.9493 -0.0990902 21.0169
rtibia 47.3104
rfoot 14.1827 -5.02605
rtoes -16.9665
lfemur -43.0912 -5.00072 -19.2216
ltibia 34.4928
lfoot -20.8637 -0.816662
ltoes -42.5849
245
root 7.64508 21.7338 6.93714 -166.218 2.42974 179.673
lowerback 2.50422 2.87927 -9.29952
upperback 4.19286 4.14406 -1.33787
thorax 2.43859 1.96942 3.77439
lowerneck -7.65757 -0.26032 -3.60288
upperneck 25.6557 -3.82431 7.99728
head 9.52863 -1.99112 2.88476
rclavicle -9.74045e-015 -6.36111e-015
rhumerus -28.8188 -14.3747 -82.3872
rradius 27.3608
rwrist 11.9642
rhand -14.0121 -36.3053
rfingers 7.12502
rthumb 12.1174 -65.9344
lclavicle -9.74045e-015 -6.36111e-015
lhumerus -25.8705 7.6716 81.574
lradius 20.8611
lwrist -20.868
lhand -24.7094 -21.3841
lfingers 7.12502
lthumb 1.79227 8.58814
rfemur -16.8952 -0.568471 20.5989
rtibia 51.8707
rfoot 12.4614 -6.05848
rtoes -17.892
lfemur -41.3445 -5.10027 -19.8959
ltibia 33.661
lfoot -21.5624 -0.976777
ltoes -42.9096
246
root 7.60803 21.8069 6.7044 -166.425 2.69728 179.348
lowerback 2.4956 2.70636 -9.76296
upperback 4.23336 3.92819 -1.38968
thorax 2.49635 1.85084 3.98343
lowerneck -7.7839 -0.0918249 -3.57145
upperneck 25.8122 -3.58628 7.87549
head 9.58906 -1.89258 2.86245
rclavicle -6.36111e-015 3.33958e-014
rhumerus -29.7829 -15.5124 -81.227
rradius 26.7859
rwrist 12.6063
rhand -12.8848 -36.848
rfingers 7.12502
rthumb 13.2042 -66.4099
lclavicle -6.36111e-015 3.33958e-014
lhumerus -25.5928 7.29265 81.8668
lradius 21.2821
lwrist -21.1092
lhand -24.7856 -21.3243
lfingers 7.12502
lthumb 1.71864 8.64853
rfemur -19.8616 -0.867988 20.2034
rtibia 55.9734
rfoot 8.58562 -6.58076
rtoes -17.5494
lfemur -39.5337 -5.16582 -20.5979
ltibia 32.7525
lfoot -22.2409 -1.0776
ltoes -43.2183
247
root 7.57136 21.8746 6.47679 -166.678 2.89087 179.079
lowerback 2.52913 2.53034 -10.0591
upperback 4.27673 3.70479 -1.44999
thorax 2.54607 1.7335 4.08919
lowerneck -7.84445 0.0592243 -3.42191
upperneck 25.9258 -3.38524 7.72176
head 9.62311 -1.80593 2.80392
rclavicle -7.15625e-015 5.1684e-014
rhumerus -30.8608 -17.1777 -79.9064
rradius 26.3313
rwrist 13.1917
rhand -11.4968 -37.4048
rfingers 7.12502
rthumb 14.5419 -66.8751
lclavicle -7.15625e-015 5.1684e-014
lhumerus -25.1711 6.66566 82.2227
lradius 21.5762
lwrist -21.2734
lhand -25.0963 -21.6734
lfingers 7.12502
lthumb 1.41853 8.30159
rfemur -22.7182 -1.00395 19.8625
rtibia 59.1854
rfoot 4.92099 -7.12767
rtoes -19.282
lfemur -37.5611 -5.20434 -21.2312
ltibia 31.5048
lfoot -22.6806 -1.12423
ltoes -43.5141
248
root 7.53539 21.9396 6.25355 -167.015 3.05015 178.887
lowerback 2.71063 2.3573 -10.2345
upperback 4.29795 3.46289 -1.48945
thorax 2.49723 1.61471 4.14209
lowerneck -8.09723 0.27416 -3.23994
upperneck 26.3938 -3.20869 7.68417
head 9.82545 -1.72449 2.78124
rclavicle 1.11319e-014 5.08889e-014
rhumerus -32.1805 -18.4992 -78.6668
rradius 26.1847
rwrist 13.1992
rhand -12.1198 -37.052
rfingers 7.12502
rthumb 13.9416 -66.5646
lclavicle 1.11319e-014 5.08889e-014
lhumerus -24.7628 6.08985 82.5538
lradius 21.7855
lwrist -21.6183
lhand -25.3404 -22.2139
lfingers 7.12502
lthumb 1.18279 7.76257
rfemur -25.5003 -1.04817 19.5869
rtibia 61.6093
rfoot 1.54518 -7.34149
rtoes -22.3075
lfemur -35.5425 -5.31347 -21.7479
ltibia 30.2817
lfoot -23.09 -1.11987
ltoes -43.5611
249
root 7.50114 22.0019 6.03082 -167.434 3.26152 178.689
lowerback 2.9442 2.07413 -10.5563
upperback 4.3673 3.0657 -1.40971
thorax 2.48311 1.4089 4.40403
lowerneck -8.50655 0.602682 -3.21247
upperneck 26.9907 -2.82081 7.54164
head 10.0927 -1.5686 2.77436
rclavicle 6.95746e-015 -1.03368e-014
rhumerus -33.2824 -19.13 -77.5469
rradius 26.0225
rwrist 12.7547
rhand -13.1723 -36.9103
rfingers 7.12502
rthumb 12.9271 -66.4899
lclavicle 6.95746e-015 -1.03368e-014
lhumerus -24.4587 5.97831 82.8372
lradius 22.0916
lwrist -22.0637
lhand -25.4815 -22.2054
lfingers 7.12502
lthumb 1.04651 7.77174
rfemur -28.2307 -0.958758 19.304
rtibia 63.4353
rfoot -1.35715 -7.11652
rtoes -25.2715
lfemur -33.4613 -5.39311 -22.282
ltibia 29.1114
lfoot -23.565 -1.07043
ltoes -43.7394
250
root 7.46846 22.062 5.81312 -167.731 3.37302 178.716
lowerback 3.07368 1.7834 -10.6123
upperback 4.44932 2.66558 -1.27206
thorax 2.55079 1.20003 4.58547
lowerneck -8.59666 0.782623 -3.36255
upperneck 27.0971 -2.55327 7.51199
head 10.1309 -1.46942 2.8203
rclavicle -1.39149e-015 -1.51076e-014
rhumerus -34.3394 -19.9423 -76.3752
rradius 25.8269
rwrist 12.571
rhand -13.1923 -37.6237
rfingers 7.12502
rthumb 12.9078 -67.2045
lclavicle -1.39149e-015 -1.51076e-014
lhumerus -24.0811 5.78165 83.1289
lradius 22.4228
lwrist -22.5563
lhand -25.6394 -22.0681
lfingers 7.12502
lthumb 0.894036 7.90979
rfemur -31.0409 -0.755209 19.2834
rtibia 64.5953
rfoot -3.95253 -6.8192
rtoes -26.656
lfemur -31.5896 -5.40276 -22.5337
ltibia 28.0147
lfoot -24.0672 -1.01796
ltoes -44.216
251
root 7.43685 22.1174 5.59794 -167.933 3.3782 178.763
lowerback 3.097 1.57437 -10.4774
upperback 4.50048 2.38889 -1.22715
thorax 2.6362 1.05945 4.56422
lowerneck -8.41482 0.819612 -3.49223
upperneck 27.0018 -2.55611 7.72476
head 10.0632 -1.47537 2.91516
rclavicle -1.13307e-014 -2.70347e-014
rhumerus -35.6772 -21.1461 -75.1081
rradius 25.7124
rwrist 12.548
rhand -12.7134 -38.4966
rfingers 7.12502
rthumb 13.3694 -68.0476
lclavicle -1.13307e-014 -2.70347e-014
lhumerus -23.563 5.21151 83.4636
lradius 22.6103
lwrist -22.9202
lhand -25.8245 -22.3599
lfingers 7.12502
lthumb 0.715274 7.61868
rfemur -33.8277 -0.61352 19.2697
rtibia 65.0538
rfoot -6.64621 -6.93383
rtoes -29.2599
lfemur -29.8482 -5.42002 -22.7667
ltibia 26.9166
lfoot -24.5132 -0.99821
ltoes -44.7956
252
root 7.407 22.1684 5.38217 -168.245 3.33625 178.48
lowerback 3.22305 1.34816 -10.6835
upperback 4.53189 2.08141 -1.24535
thorax 2.64483 0.903006 4.66286
lowerneck -8.34236 0.916069 -3.31585
upperneck 27.101 -2.47407 7.62075
head 10.0775 -1.44609 2.85554
rclavicle -2.18663e-015 4.77083e-015
rhumerus -37.2462 -22.2238 -73.7754
rradius 25.6846
rwrist 12.3346
rhand -12.7558 -38.6274
rfingers 7.12502
rthumb 13.3286 -68.1812
lclavicle -2.18663e-015 4.77083e-015
lhumerus -23.2969 4.42229 83.8247
lradius 23.1078
lwrist -22.758
lhand -25.629 -22.2592
lfingers 7.12502
lthumb 0.90411 7.71864
rfemur -36.3731 -0.63397 18.8724
rtibia 64.9108
rfoot -9.14716 -7.61906
rtoes -31.778
lfemur -27.9085 -5.45198 -23.4339
ltibia 25.6845
lfoot -24.8437 -1.06963
ltoes -45.4591
253
root 7.38063 22.2139 5.17272 -168.549 3.29176 178.172
lowerback 3.40232 1.10319 -10.9849
upperback 4.54842 1.73781 -1.23983
thorax 2.61428 0.72758 4.83889
lowerneck -8.31398 1.0222 -3.05302
upperneck 27.1615 -2.33163 7.36728
head 10.0811 -1.38991 2.73406
rclavicle -4.57205e-015 -3.10104e-014
rhumerus -38.7943 -23.3862 -72.3172
rradius 25.4176
rwrist 12.4441
rhand -13.359 -37.9068
rfingers 7.12502
rthumb 12.7471 -67.4977
lclavicle -4.57205e-015 -3.10104e-014
lhumerus -23.1609 3.4581 84.1753
lradius 23.8104
lwrist -22.2504
lhand -25.3957 -22.1403
lfingers 7.12502
lthumb 1.1294 7.83647
rfemur -38.8521 -0.602181 18.4261
rtibia 64.2556
rfoot -10.8214 -8.36659
rtoes -29.7172
lfemur -26.0751 -5.45982 -24.0912
ltibia 24.5834
lfoot -25.2067 -1.15526
ltoes -46.0602
